<svg width="24" height="24" viewBox="0 0 24 24" fill="none" xmlns="http://www.w3.org/2000/svg">
<g clip-path="url(#clip0_101_104)">
<path d="M9.75077 10.7581V6.25806M14.8258 15.4236L14.1038 17.7421L13.3818 15.4236L12.6598 17.7421L11.9383 15.4236M15.5603 17.5466C15.7198 17.6806 15.8923 17.7421 16.2798 17.7421H16.4758C16.7958 17.7421 17.0543 17.4826 17.0543 17.1621C17.0543 16.8421 16.7953 16.5826 16.4758 16.5826H16.0833C16.0072 16.5825 15.932 16.5675 15.8617 16.5383C15.7915 16.5091 15.7277 16.4664 15.674 16.4126C15.6203 16.3588 15.5777 16.2949 15.5486 16.2247C15.5196 16.1544 15.5047 16.0791 15.5048 16.0031C15.5048 15.6831 15.7638 15.4231 16.0833 15.4231H16.2798C16.6673 15.4231 16.8398 15.4851 16.9998 15.6191M8.69727 17.7421V16.2986C8.69727 16.0665 8.60508 15.8439 8.44098 15.6798C8.27689 15.5157 8.05433 15.4236 7.82227 15.4236C7.5902 15.4236 7.36764 15.5157 7.20355 15.6798C7.03945 15.8439 6.94727 16.0665 6.94727 16.2986M6.94727 17.7421V15.4236M11.1868 17.3006C11.1103 17.4346 10.9997 17.5461 10.8662 17.6237C10.7327 17.7012 10.5811 17.742 10.4268 17.7421C10.1947 17.7421 9.97214 17.6499 9.80805 17.4858C9.64395 17.3217 9.55177 17.0991 9.55177 16.8671V16.2986C9.55177 15.8151 9.94327 15.4236 10.4268 15.4236C10.9098 15.4236 11.3018 15.8151 11.3018 16.2986V16.5826H9.55177" stroke="black" stroke-width="0.5" stroke-linecap="round" stroke-linejoin="round"/>
<path d="M12 22.75C17.9371 22.75 22.75 17.9371 22.75 12C22.75 6.06294 17.9371 1.25 12 1.25C6.06294 1.25 1.25 6.06294 1.25 12C1.25 17.9371 6.06294 22.75 12 22.75Z" stroke="black" stroke-linecap="round" stroke-linejoin="round"/>
<path d="M6.35352 13.0081C7.59616 13.0081 8.60352 12.0007 8.60352 10.7581C8.60352 9.51542 7.59616 8.50806 6.35352 8.50806C5.11087 8.50806 4.10352 9.51542 4.10352 10.7581C4.10352 12.0007 5.11087 13.0081 6.35352 13.0081Z" stroke="black" stroke-width="0.5" stroke-linecap="round" stroke-linejoin="round"/>
<path d="M12.0005 13.0081C13.2431 13.0081 14.2505 12.0007 14.2505 10.7581C14.2505 9.51542 13.2431 8.50806 12.0005 8.50806C10.7578 8.50806 9.75049 9.51542 9.75049 10.7581C9.75049 12.0007 10.7578 13.0081 12.0005 13.0081Z" stroke="black" stroke-width="0.5" stroke-linecap="round" stroke-linejoin="round"/>
<path d="M19.663 11.7591C19.4373 12.2135 19.0647 12.5783 18.6056 12.7943C18.1465 13.0103 17.6278 13.0647 17.1339 12.9488C16.6399 12.8329 16.1996 12.5535 15.8845 12.1558C15.5693 11.7582 15.3978 11.2657 15.3978 10.7583C15.3978 10.2509 15.5693 9.75843 15.8845 9.36079C16.1996 8.96315 16.6399 8.68369 17.1339 8.56779C17.6278 8.45189 18.1465 8.50635 18.6056 8.72233C19.0647 8.93831 19.4373 9.30312 19.663 9.75755" stroke="black" stroke-width="0.5" stroke-linecap="round" stroke-linejoin="round"/>
<path d="M8.60352 10.7581V13.0081" stroke="black" stroke-width="0.5" stroke-linecap="round" stroke-linejoin="round"/>
</g>
<defs>
<clipPath id="clip0_101_104">
<rect width="24" height="24" fill="white"/>
</clipPath>
</defs>
</svg>
