<svg width="24" height="24" viewBox="0 0 24 24" fill="none" xmlns="http://www.w3.org/2000/svg">
<path d="M11.4635 12.5605C13.763 12.5605 15.627 10.6965 15.627 8.39702C15.627 6.09758 13.763 4.23352 11.4635 4.23352C9.16411 4.23352 7.30005 6.09758 7.30005 8.39702C7.30005 10.6965 9.16411 12.5605 11.4635 12.5605Z" stroke="black" stroke-width="0.7" stroke-linecap="round" stroke-linejoin="round"/>
<path d="M11.4635 11.6895C13.2819 11.6895 14.756 10.2154 14.756 8.39699C14.756 6.5786 13.2819 5.10449 11.4635 5.10449C9.64512 5.10449 8.17102 6.5786 8.17102 8.39699C8.17102 10.2154 9.64512 11.6895 11.4635 11.6895Z" stroke="black" stroke-width="0.7" stroke-linecap="round" stroke-linejoin="round"/>
<path d="M11.4635 9.29246C11.9581 9.29246 12.359 8.89154 12.359 8.39697C12.359 7.90239 11.9581 7.50146 11.4635 7.50146C10.9689 7.50146 10.568 7.90239 10.568 8.39697C10.568 8.89154 10.9689 9.29246 11.4635 9.29246Z" stroke="black" stroke-width="0.7" stroke-linecap="round" stroke-linejoin="round"/>
<path d="M11.4635 6.33855C11.8103 6.33865 12.1515 6.42635 12.4553 6.59353C12.7591 6.76072 13.0158 7.00195 13.2015 7.29485C13.3872 7.58775 13.4959 7.92281 13.5175 8.26893C13.539 8.61506 13.4728 8.96103 13.325 9.27473C13.1771 9.58843 12.9524 9.85968 12.6717 10.0633C12.391 10.2669 12.0633 10.3964 11.7192 10.4395C11.3751 10.4827 11.0257 10.4383 10.7034 10.3103C10.3811 10.1823 10.0963 9.975 9.8755 9.70755M16.797 11.7141V4.99255H18.982C20.242 4.99255 21.25 6.00105 21.25 7.26105C21.25 8.52105 20.242 9.52955 18.9815 9.52955H16.797M2.75 4.99255H7.119M4.9345 11.7141V4.99255" stroke="black" stroke-width="0.7" stroke-linecap="round" stroke-linejoin="round"/>
<path d="M3.55896 19.7665V14.853L6.81446 19.7665V14.853M16.283 14.853L15.0545 19.7665L13.8265 14.853L12.598 19.7665L11.3695 14.853M17.247 19.214C17.5545 19.5825 17.923 19.7665 18.4755 19.7665H19.2125C19.888 19.7665 20.441 19.214 20.441 18.538C20.441 17.862 19.888 17.31 19.2125 17.31H18.414C17.7385 17.31 17.1855 16.757 17.1855 16.0815C17.1855 15.406 17.7385 14.853 18.414 14.853H19.151C19.704 14.853 20.0725 14.976 20.3795 15.406M7.92196 17.31H9.51846M10.3785 19.7665H7.92196V14.853H10.3785" stroke="black" stroke-width="0.7" stroke-linecap="round" stroke-linejoin="round"/>
</svg>
